<svg width="2688" height="2869" viewBox="0 0 2688 2869" fill="none" xmlns="https://www.w3.org/2000/svg">
<g clip-path="url(#clip0_1528_1013)">
<mask id="mask0_1528_1013" style="mask-type:luminance" maskUnits="userSpaceOnUse" x="0" y="0" width="2688" height="2869">
<path d="M0 2869H2688V0H0V2869Z" fill="white"/>
</mask>
<g mask="url(#mask0_1528_1013)">
<mask id="mask1_1528_1013" style="mask-type:luminance" maskUnits="userSpaceOnUse" x="0" y="0" width="2688" height="2869">
<path d="M0 0H2688V2869H0V0Z" fill="white"/>
</mask>
<g mask="url(#mask1_1528_1013)">
<path d="M1364.85 2182.61L1571.27 2208.99C1597.65 2213.4 1610.83 2230.94 1593.23 2252.9L1167.26 2858.98C1154.07 2876.51 1118.94 2872.16 1127.7 2837.02L1255.08 2384.61L1048.65 2358.25C1022.28 2353.82 1009.09 2336.29 1026.7 2314.34L1452.74 1708.25C1465.93 1690.71 1501.07 1695.06 1492.3 1730.21L1364.92 2182.61H1364.85Z" fill="#EFBA4C"/>
<path d="M2002.37 1790.51L2128.39 1624.93C2145.36 1604.33 2167.17 1601.69 2177.44 1627.85L2489.28 2299.87C2497.91 2320.03 2476.52 2348.26 2450.51 2323.11L2122.4 1986.6L1996.39 2152.18C1979.42 2172.77 1957.61 2175.41 1947.34 2149.25L1635.43 1477.24C1626.8 1457.06 1648.19 1428.84 1674.21 1454L2002.31 1790.51H2002.37Z" fill="#EFBA4C"/>
<path d="M1981.49 1042.37L1901.09 850.412C1891.75 825.396 1900.37 805.222 1928.17 809.429L2666.06 875.361C2687.87 877.991 2701.63 910.64 2666.78 920.551L2211.3 1036.45L2291.7 1228.4C2301.03 1253.43 2292.41 1273.59 2264.62 1269.39L1526.66 1203.45C1504.85 1200.82 1491.09 1168.17 1525.94 1158.26L1981.42 1042.37H1981.49Z" fill="#EFBA4C"/>
<path d="M685.699 1078.5L559.679 1244.08C542.712 1264.68 520.901 1267.31 510.637 1241.16L198.713 569.138C190.093 548.975 211.472 520.738 237.491 545.902L565.588 882.408L691.619 716.831C708.575 696.238 730.386 693.596 740.65 719.757L1052.57 1391.77C1061.19 1411.95 1039.81 1440.17 1013.8 1415.01L685.699 1078.5Z" fill="#EFBA4C"/>
<path d="M1275.62 718.371L1068.25 735.532C1041.58 736.713 1025.03 722.267 1037.6 697.14L1328.23 15.6347C1337.44 -4.26336 1372.73 -7.27289 1371.44 28.9004L1340.95 497.894L1548.33 480.741C1574.98 479.559 1591.54 493.998 1578.97 519.133L1288.35 1200.63C1279.12 1220.54 1243.84 1223.54 1245.13 1187.36L1275.62 718.371Z" fill="#EFBA4C"/>
<path d="M706.582 1826.65L786.985 2018.6C796.319 2043.62 787.699 2063.79 759.901 2059.58L21.9419 1993.65C0.131499 1991.02 -13.6262 1958.37 21.2274 1948.46L476.705 1832.57L396.303 1640.61C386.969 1615.58 395.588 1595.42 423.387 1599.62L1161.35 1665.56C1183.16 1668.19 1196.91 1700.84 1162.06 1710.75L706.582 1826.65Z" fill="#EFBA4C"/>
</g>
</g>
</g>
<defs>
<clipPath id="clip0_1528_1013">
<rect width="2688" height="2869" fill="white"/>
</clipPath>
</defs>
</svg>
