<svg width="2500" height="920" viewBox="0 0 2500 920" fill="none" xmlns="https://www.w3.org/2000/svg">
<mask id="mask0_1528_1032" style="mask-type:luminance" maskUnits="userSpaceOnUse" x="0" y="0" width="2500" height="920">
<path d="M0 -6.10352e-05H2500V919.736H0V-6.10352e-05Z" fill="white"/>
</mask>
<g mask="url(#mask0_1528_1032)">
<path d="M141.572 249.889L24.2019 351.265C8.83559 364.539 0.00146484 383.851 0.00146484 404.135V785.229C0.00146484 818.577 23.5741 847.277 56.2798 853.749L382.47 918.398C403.561 922.584 425.43 916.814 441.723 902.748L559.078 801.387C574.444 788.114 583.293 768.801 583.293 748.502V367.409C583.293 334.06 559.721 305.36 527 298.888L200.825 234.239C179.719 230.054 157.85 235.838 141.572 249.889Z" fill="#F9B000"/>
<path d="M283.274 176.911L230.075 170.125C223.274 168.989 219.88 164.475 224.41 158.795L334.231 2.57542C337.639 -1.9388 346.697 -0.817719 344.425 8.24063L311.6 124.833L361.406 130.498C367.056 131.62 369.328 133.892 367.056 141.814L338.984 233.399L270.837 219.946L283.289 176.926L283.274 176.911Z" fill="#F9B000"/>
<path d="M407.691 701.231C398.244 701.231 388.618 700.708 378.902 699.617C314.567 692.442 258.049 663.264 223.849 619.542C215.687 609.108 217.526 594.011 227.944 585.849C238.378 577.658 253.49 579.526 261.652 589.945C287.945 623.563 332.638 646.149 384.238 651.889C427.96 656.777 469.829 647.823 493.417 628.585C503.701 620.199 518.813 621.724 527.199 632.008C535.584 642.292 534.06 657.404 523.776 665.79C495.779 688.645 453.715 701.231 407.691 701.231Z" fill="#232318"/>
<path d="M39.2171 496.457C39.0228 465.202 54.8674 431.793 74.5985 421.838C94.3295 411.868 110.443 429.133 110.623 460.388C110.817 491.629 94.9723 525.052 75.2412 534.993C55.5251 544.978 39.3965 527.713 39.2171 496.457Z" fill="#232318"/>
<path d="M476.765 567.429L249.2 521.928C224.103 516.906 206.061 494.888 206.061 469.282V368.938C206.061 335.066 237.048 309.67 270.262 316.307L497.827 361.808C522.924 366.83 540.966 388.848 540.966 414.439V514.783C540.966 548.655 509.979 574.066 476.765 567.429Z" fill="#232318"/>
<path d="M315.094 398.729C315.094 388.624 306.903 380.448 296.798 380.448C286.708 380.448 278.517 388.624 278.517 398.729V450.313C278.517 460.418 286.708 468.609 296.798 468.609C306.903 468.609 315.094 460.418 315.094 450.313V398.729Z" fill="#F9B000"/>
<path d="M475.215 427.69C475.215 417.585 467.024 409.409 456.919 409.409C446.829 409.409 438.638 417.585 438.638 427.69V479.275C438.638 489.379 446.829 497.571 456.919 497.571C467.024 497.571 475.215 489.379 475.215 479.275V427.69Z" fill="#F9B000"/>
<path d="M1364.71 857.583C1485.88 857.583 1577.67 796.626 1643.76 728.345C1650.37 738.614 1683.41 804.713 1700.31 836.283C1705.45 846.567 1712.05 850.244 1720.86 850.244H1806.78C1814.87 850.244 1815.6 841.425 1812.65 834.818C1768.6 743.756 1748.77 707.044 1733.36 677.672C1728.21 667.388 1726.73 659.316 1733.36 649.765L1850.11 501.438C1857.45 491.886 1853.04 483.799 1847.17 483.799H1768.6C1754.64 483.799 1747.3 490.421 1738.5 502.17L1670.93 596.162L1616.58 494.816C1612.92 488.209 1607.05 483.799 1598.96 483.799H1527.73C1511.58 483.799 1513.79 497.761 1521.86 512.439L1586.48 639.481C1591.62 648.3 1597.49 654.174 1590.16 661.514C1577.67 673.262 1496.9 773.876 1365.45 773.876C1336.81 773.876 1256.76 764.324 1271.45 693.831C1288.35 705.58 1329.47 714.384 1350.77 714.384C1423.46 715.116 1500.56 663.726 1501.31 593.217C1501.31 535.937 1446.96 475.728 1374.26 475.728C1258.97 475.728 1177.46 582.948 1177.46 702.635C1177.46 822.337 1269.99 857.583 1364.71 857.583ZM1820.74 701.17C1820.74 813.517 1884.63 858.316 1981.55 858.316C2049.84 858.316 2098.32 828.211 2140.91 795.162C2143.85 793.697 2144.58 790.02 2144.58 788.555C2144.58 785.625 2143.85 783.413 2143.85 783.413C2128.42 764.324 2118.87 754.04 2104.93 737.882C2103.46 736.417 2101.25 736.417 2099.78 736.417C2096.11 736.417 2093.18 737.882 2091.7 739.362C2078.48 748.898 2027.81 774.608 1984.49 774.608C1949.25 774.608 1913.27 755.505 1913.27 707.044C1913.27 702.635 1913.27 697.493 1914.73 694.563C1933.09 707.044 1977.89 715.116 2001.38 715.116C2072.61 715.116 2149.73 660.781 2149.73 593.95C2149.73 541.812 2101.25 477.193 2021.94 476.46C1907.39 476.46 1821.47 571.199 1820.74 701.17ZM1991.83 636.551C1972.01 636.551 1942.64 631.409 1930.16 626.267C1938.96 595.429 1969.07 568.254 2001.38 568.254C2027.81 568.254 2049.11 585.145 2049.11 604.234C2049.11 629.211 2013.13 636.551 1991.83 636.551ZM2171.74 700.438C2171.74 812.785 2235.63 857.583 2331.83 857.583C2400.13 857.583 2448.59 827.479 2491.18 794.429C2494.12 792.232 2494.85 789.287 2494.85 787.822C2494.85 784.877 2494.12 782.68 2494.12 782.68C2479.43 763.592 2469.16 753.308 2455.93 737.149C2454.47 735.684 2451.54 735.684 2450.06 735.684C2447.86 735.684 2444.91 737.149 2441.98 738.614C2429.5 748.166 2378.83 773.876 2335.51 773.876C2299.52 773.876 2263.54 754.773 2263.54 706.312C2263.54 701.902 2263.54 696.76 2265 693.831C2284.11 706.312 2329.64 714.384 2352.4 714.384C2422.9 714.384 2500 660.049 2500 593.217C2500 540.347 2451.54 475.728 2372.22 475.728C2257.66 475.728 2171.74 570.452 2171.74 700.438ZM2342.12 635.818C2323.02 635.818 2293.64 630.676 2280.43 625.534C2289.25 594.697 2320.09 567.522 2352.4 567.522C2378.83 567.522 2400.13 584.413 2400.13 603.501C2400.13 628.464 2364.15 635.818 2342.12 635.818ZM1098.88 859.781C1104.76 864.923 1112.1 863.458 1120.92 854.639L1177.46 798.839C1181.12 794.429 1182.6 784.877 1177.46 779.003C1127.52 730.542 1079.06 665.191 1073.19 615.983C1072.45 610.841 1075.38 607.911 1081.26 604.234C1135.59 575.594 1185.53 542.559 1185.53 446.355C1185.53 281.123 986.535 280.39 860.958 300.958C853.619 300.958 852.154 306.1 852.154 314.172C844.8 411.108 820.57 749.631 814.695 823.801C813.23 844.37 819.837 849.512 826.444 849.512H913.096C927.043 849.512 931.452 844.37 931.452 828.211C932.917 803.981 939.539 669.6 941.004 626.999L957.895 625.534C1009.3 764.324 1068.04 837.763 1098.88 859.781ZM957.895 556.505C949.076 556.505 946.878 552.096 947.611 541.812L956.43 411.108C957.162 396.415 960.825 394.217 976.983 394.217C1046.74 394.217 1068.78 421.392 1068.78 464.711C1068.78 530.81 1007.09 556.505 957.895 556.505ZM1347.82 636.551C1328 636.551 1298.63 631.409 1286.13 626.267C1294.95 595.429 1325.06 568.254 1357.37 568.254C1383.8 568.254 1405.1 585.145 1405.1 604.234C1405.1 629.211 1369.12 636.551 1347.82 636.551Z" fill="#232318"/>
<path d="M2097.45 376.071V355.473L2071.18 307.715H2083.29L2100.87 341.213C2101.74 342.872 2102.42 344.636 2102.72 345.906H2103.11C2103.2 344.636 2103.89 342.872 2104.77 341.213L2122.24 307.715H2134.26L2108.09 355.473V376.071H2097.45ZM2025.44 337.984H2046.34C2053.66 337.984 2058.25 333.305 2058.25 326.953C2058.25 320.615 2053.66 316.026 2046.34 316.026H2025.44V337.984ZM2045.46 367.775C2052.98 367.775 2057.28 363.276 2057.28 356.833C2057.28 350.495 2053.08 345.996 2045.46 345.996H2025.44V367.775H2045.46ZM2014.9 376.071V307.715H2047.51C2060.6 307.715 2068.9 315.039 2068.9 325.981C2068.9 334.083 2063.42 340.047 2054.44 341.99C2062.84 343.844 2067.92 349.808 2067.92 358.104C2067.92 368.851 2059.63 376.071 2046.53 376.071H2014.9ZM1944.07 367.282C1959.39 367.282 1968.86 357.326 1968.86 341.9C1968.86 326.474 1959.39 316.504 1944.07 316.504H1929.81V367.282H1944.07ZM1919.16 376.071V307.715H1944.65C1966.04 307.715 1979.81 321.287 1979.81 341.9C1979.81 362.498 1966.04 376.071 1944.65 376.071H1919.16ZM1858.71 376.071V307.715H1906.85V316.504H1869.45V337.79H1901.48V346.579H1869.45V367.282H1906.46V376.071H1858.71ZM1820.27 343.171C1829.64 343.171 1835.4 337.401 1835.4 329.688C1835.4 321.975 1829.64 316.31 1820.55 316.31H1803.36V343.171H1820.27ZM1792.72 376.071V307.715H1821.91C1836.76 307.715 1846.34 316.414 1846.34 329.688C1846.34 341.317 1838.63 348.044 1827.68 349.897C1832.08 350.585 1836.37 353.814 1838.13 360.346L1840.96 371.587C1841.45 373.635 1842.03 374.995 1842.81 376.071H1831.49C1830.61 375.488 1829.84 374.307 1829.15 371.482L1826.11 359.868C1824.65 354.397 1820.45 351.751 1815.08 351.751H1803.36V376.071H1792.72ZM1732.27 376.071V307.715H1780.4V316.504H1743.02V337.79H1775.04V346.579H1743.02V367.282H1780.01V376.071H1732.27ZM1649.37 376.071L1628.28 307.715H1639.61L1655.81 363.38L1670.16 307.715H1682.47L1697.02 363.38L1713.03 307.715H1724.07L1702.97 376.071H1690.57L1676.22 320.809L1661.76 376.071H1649.37ZM1590.72 367.865C1604.18 367.865 1614.44 357.028 1614.44 341.9C1614.44 326.758 1604.18 315.921 1590.72 315.921C1577.25 315.921 1566.89 326.758 1566.89 341.9C1566.89 357.028 1577.25 367.865 1590.72 367.865ZM1590.72 377.342C1570.7 377.342 1555.96 362.11 1555.96 341.9C1555.96 321.691 1570.7 306.459 1590.72 306.459C1610.64 306.459 1625.47 321.691 1625.47 341.9C1625.47 362.11 1610.64 377.342 1590.72 377.342ZM1525.23 342.872C1533.33 342.872 1538.71 337.7 1538.71 329.688C1538.71 321.975 1533.33 316.504 1525.23 316.504H1508.44V342.872H1525.23ZM1497.89 376.071V307.715H1526.2C1539.77 307.715 1549.45 317.102 1549.45 329.688C1549.45 342.379 1539.77 351.751 1526.2 351.751H1508.53V376.071H1497.89Z" fill="#232318"/>
<path d="M2165.33 319.92H2199.78C2200.14 319.92 2200.52 319.755 2200.77 319.516L2210.56 309.725C2211.04 309.112 2210.92 308.245 2210.32 307.767C2210.11 307.618 2209.84 307.498 2209.59 307.483H2165.33C2164.57 307.483 2163.94 308.111 2163.94 308.873V318.53C2163.94 319.292 2164.57 319.92 2165.33 319.92Z" fill="#232318"/>
<path d="M2277.95 307.365H2233.57C2232.81 307.365 2232.2 307.978 2232.2 308.74V318.531C2232.2 319.293 2232.78 319.891 2233.56 319.921H2268.25C2268.61 319.921 2268.97 319.757 2269.22 319.517L2279.03 309.727C2279.57 309.203 2279.61 308.336 2279.07 307.798C2278.79 307.484 2278.36 307.32 2277.95 307.365Z" fill="#232318"/>
<path d="M2264.61 349.519L2274.37 339.773C2274.87 339.19 2274.78 338.338 2274.2 337.845C2273.97 337.666 2273.7 337.546 2273.4 337.531H2233.57C2232.81 337.531 2232.19 338.129 2232.19 338.891V373.734C2232.19 374.497 2232.79 375.095 2233.55 375.125H2233.57H2244.39C2245.15 375.125 2245.76 374.497 2245.76 373.734V351.268C2245.76 350.506 2246.35 349.908 2247.11 349.878H2247.14H2263.76C2264.08 349.878 2264.39 349.743 2264.61 349.519Z" fill="#232318"/>
<path d="M2312.64 307.363H2301.81C2301.07 307.363 2300.44 307.976 2300.44 308.739V373.732C2300.44 374.479 2301.07 375.092 2301.81 375.092H2312.64C2313.4 375.092 2314.01 374.479 2314.01 373.732V308.739C2314.01 307.976 2313.4 307.363 2312.64 307.363Z" fill="#232318"/>
<path d="M2397.35 307.365H2386.55C2385.79 307.365 2385.15 307.993 2385.15 308.755V347.365C2385.15 348.128 2384.55 348.726 2383.79 348.726C2383.38 348.726 2382.98 348.546 2382.73 348.232L2348.47 307.799C2348.2 307.485 2347.81 307.29 2347.4 307.29H2339.36C2338.59 307.29 2337.96 307.933 2337.96 308.695V373.733C2337.96 374.495 2338.59 375.123 2339.36 375.123H2350.16C2350.92 375.123 2351.53 374.51 2351.53 373.748V336.289C2351.53 335.527 2352.11 334.914 2352.88 334.899C2353.31 334.899 2353.68 335.078 2353.95 335.392L2387.84 374.63C2388.11 374.944 2388.48 375.123 2388.89 375.123H2397.35C2398.11 375.123 2398.74 374.495 2398.74 373.733V308.755C2398.74 307.993 2398.11 307.365 2397.35 307.365Z" fill="#232318"/>
<path d="M2448.72 362.566H2437.63C2436.87 362.566 2436.25 361.953 2436.25 361.19V321.265C2436.25 320.503 2436.85 319.89 2437.61 319.875H2437.63H2448.72C2461.2 319.875 2471.22 329.232 2471.22 340.891C2471.04 353.044 2461.01 362.745 2448.84 362.566H2448.72ZM2448.72 307.363H2423.98C2423.22 307.363 2422.61 307.976 2422.61 308.739V373.732C2422.61 374.494 2423.19 375.092 2423.95 375.122H2423.98H2448.72C2469.48 375.122 2485.04 360.473 2485.04 340.936C2485.04 321.833 2469.48 307.363 2448.72 307.363Z" fill="#232318"/>
<path d="M2206.13 339.772C2206.61 339.159 2206.49 338.292 2205.88 337.814C2205.65 337.634 2205.41 337.545 2205.14 337.53H2165.32C2164.56 337.53 2163.96 338.113 2163.93 338.875V373.733C2163.93 374.495 2164.56 375.123 2165.32 375.123H2176.04C2176.8 375.123 2177.4 374.51 2177.4 373.748V351.267C2177.4 350.504 2178.03 349.877 2178.81 349.877H2195.38C2195.74 349.877 2196.1 349.742 2196.37 349.503L2206.13 339.772Z" fill="#232318"/>
</g>
</svg>
