<svg width="2500" height="920" viewBox="0 0 2500 920" fill="none" xmlns="http://www.w3.org/2000/svg">
<mask id="mask0_1528_1070" style="mask-type:luminance" maskUnits="userSpaceOnUse" x="0" y="0" width="2500" height="920">
<path d="M0 -6.10352e-05H2500V919.736H0V-6.10352e-05Z" fill="white"/>
</mask>
<g mask="url(#mask0_1528_1070)">
<path d="M141.572 249.889L24.2019 351.265C8.83559 364.539 0.00146484 383.851 0.00146484 404.135V785.229C0.00146484 818.577 23.5741 847.277 56.2798 853.749L382.47 918.398C403.561 922.584 425.43 916.814 441.723 902.748L559.078 801.387C574.444 788.114 583.293 768.801 583.293 748.502V367.409C583.293 334.06 559.721 305.36 527 298.888L200.825 234.239C179.719 230.054 157.85 235.838 141.572 249.889Z" fill="#F9B000"/>
<path d="M283.274 176.911L230.075 170.125C223.274 168.989 219.88 164.475 224.41 158.795L334.231 2.57536C337.639 -1.93886 346.697 -0.81778 344.425 8.24057L311.6 124.833L361.406 130.498C367.056 131.619 369.328 133.892 367.056 141.814L338.984 233.399L270.837 219.946L283.289 176.926L283.274 176.911Z" fill="#F9B000"/>
<path d="M407.691 701.231C398.244 701.231 388.618 700.708 378.902 699.617C314.567 692.442 258.049 663.264 223.849 619.542C215.687 609.108 217.526 594.011 227.944 585.849C238.378 577.658 253.49 579.526 261.652 589.945C287.945 623.563 332.638 646.149 384.238 651.889C427.96 656.777 469.829 647.823 493.417 628.585C503.701 620.199 518.813 621.724 527.199 632.008C535.584 642.292 534.06 657.404 523.776 665.79C495.779 688.645 453.715 701.231 407.691 701.231Z" fill="#232318"/>
<path d="M39.2171 496.457C39.0228 465.201 54.8674 431.793 74.5985 421.838C94.3295 411.868 110.443 429.133 110.623 460.388C110.817 491.629 94.9723 525.052 75.2412 534.993C55.5251 544.978 39.3965 527.713 39.2171 496.457Z" fill="#232318"/>
<path d="M476.765 567.429L249.2 521.928C224.103 516.906 206.061 494.888 206.061 469.282V368.938C206.061 335.066 237.048 309.67 270.262 316.307L497.827 361.808C522.924 366.83 540.966 388.848 540.966 414.439V514.783C540.966 548.655 509.979 574.066 476.765 567.429Z" fill="#232318"/>
<path d="M315.094 398.729C315.094 388.624 306.903 380.448 296.798 380.448C286.708 380.448 278.517 388.624 278.517 398.729V450.313C278.517 460.418 286.708 468.61 296.798 468.61C306.903 468.61 315.094 460.418 315.094 450.313V398.729Z" fill="#F9B000"/>
<path d="M475.215 427.69C475.215 417.585 467.024 409.409 456.919 409.409C446.829 409.409 438.638 417.585 438.638 427.69V479.275C438.638 489.379 446.829 497.571 456.919 497.571C467.024 497.571 475.215 489.379 475.215 479.275V427.69Z" fill="#F9B000"/>
<path d="M1364.71 857.583C1485.88 857.583 1577.67 796.626 1643.76 728.345C1650.37 738.614 1683.41 804.713 1700.31 836.283C1705.45 846.567 1712.05 850.244 1720.86 850.244H1806.78C1814.87 850.244 1815.6 841.425 1812.65 834.818C1768.6 743.756 1748.77 707.044 1733.36 677.672C1728.21 667.388 1726.73 659.316 1733.36 649.765L1850.11 501.438C1857.45 491.886 1853.04 483.799 1847.17 483.799H1768.6C1754.64 483.799 1747.3 490.421 1738.5 502.17L1670.93 596.162L1616.58 494.816C1612.92 488.209 1607.05 483.799 1598.96 483.799H1527.73C1511.58 483.799 1513.79 497.761 1521.86 512.439L1586.48 639.481C1591.62 648.3 1597.49 654.174 1590.16 661.514C1577.67 673.262 1496.9 773.876 1365.45 773.876C1336.81 773.876 1256.76 764.324 1271.45 693.831C1288.35 705.58 1329.47 714.384 1350.77 714.384C1423.46 715.116 1500.56 663.726 1501.31 593.217C1501.31 535.937 1446.96 475.728 1374.26 475.728C1258.97 475.728 1177.46 582.948 1177.46 702.635C1177.46 822.337 1269.99 857.583 1364.71 857.583ZM1820.74 701.17C1820.74 813.517 1884.63 858.316 1981.55 858.316C2049.84 858.316 2098.32 828.211 2140.91 795.162C2143.85 793.697 2144.58 790.02 2144.58 788.555C2144.58 785.625 2143.85 783.413 2143.85 783.413C2128.42 764.324 2118.87 754.04 2104.93 737.882C2103.46 736.417 2101.25 736.417 2099.78 736.417C2096.11 736.417 2093.18 737.882 2091.7 739.362C2078.48 748.898 2027.81 774.608 1984.49 774.608C1949.25 774.608 1913.27 755.505 1913.27 707.044C1913.27 702.635 1913.27 697.493 1914.73 694.563C1933.09 707.044 1977.89 715.116 2001.38 715.116C2072.61 715.116 2149.73 660.781 2149.73 593.95C2149.73 541.812 2101.25 477.193 2021.94 476.46C1907.39 476.46 1821.47 571.199 1820.74 701.17ZM1991.83 636.551C1972.01 636.551 1942.64 631.409 1930.16 626.267C1938.96 595.429 1969.07 568.254 2001.38 568.254C2027.81 568.254 2049.11 585.145 2049.11 604.234C2049.11 629.211 2013.13 636.551 1991.83 636.551ZM2171.74 700.438C2171.74 812.785 2235.63 857.583 2331.83 857.583C2400.13 857.583 2448.59 827.479 2491.18 794.429C2494.12 792.232 2494.85 789.287 2494.85 787.822C2494.85 784.877 2494.12 782.68 2494.12 782.68C2479.43 763.592 2469.16 753.308 2455.93 737.149C2454.47 735.684 2451.54 735.684 2450.06 735.684C2447.86 735.684 2444.91 737.149 2441.98 738.614C2429.5 748.166 2378.83 773.876 2335.51 773.876C2299.52 773.876 2263.54 754.773 2263.54 706.312C2263.54 701.902 2263.54 696.76 2265 693.831C2284.11 706.312 2329.64 714.384 2352.4 714.384C2422.9 714.384 2500 660.049 2500 593.217C2500 540.347 2451.54 475.728 2372.22 475.728C2257.66 475.728 2171.74 570.452 2171.74 700.438ZM2342.12 635.818C2323.02 635.818 2293.64 630.676 2280.43 625.534C2289.25 594.697 2320.09 567.522 2352.4 567.522C2378.83 567.522 2400.13 584.413 2400.13 603.501C2400.13 628.464 2364.15 635.818 2342.12 635.818ZM1098.88 859.781C1104.76 864.923 1112.1 863.458 1120.92 854.639L1177.46 798.839C1181.12 794.429 1182.6 784.877 1177.46 779.003C1127.52 730.542 1079.06 665.191 1073.19 615.983C1072.45 610.841 1075.38 607.911 1081.26 604.234C1135.59 575.594 1185.53 542.559 1185.53 446.355C1185.53 281.123 986.535 280.39 860.958 300.958C853.619 300.958 852.154 306.1 852.154 314.172C844.8 411.108 820.57 749.631 814.695 823.801C813.23 844.37 819.837 849.512 826.444 849.512H913.096C927.043 849.512 931.452 844.37 931.452 828.211C932.917 803.981 939.539 669.6 941.004 626.999L957.895 625.534C1009.3 764.324 1068.04 837.763 1098.88 859.781ZM957.895 556.505C949.076 556.505 946.878 552.096 947.611 541.812L956.43 411.108C957.162 396.415 960.825 394.217 976.983 394.217C1046.74 394.217 1068.78 421.392 1068.78 464.711C1068.78 530.81 1007.09 556.505 957.895 556.505ZM1347.82 636.551C1328 636.551 1298.63 631.409 1286.13 626.267C1294.95 595.429 1325.06 568.254 1357.37 568.254C1383.8 568.254 1405.1 585.145 1405.1 604.234C1405.1 629.211 1369.12 636.551 1347.82 636.551Z" fill="white"/>
</g>
</svg>
