<svg width="584" height="920" viewBox="0 0 584 920" fill="none" xmlns="http://www.w3.org/2000/svg">
<path d="M141.57 249.894L24.2004 351.269C8.83413 364.543 0 383.855 0 404.14V785.233C0 818.582 23.5726 847.281 56.2784 853.754L382.469 918.403C403.56 922.588 425.429 916.818 441.722 902.752L559.077 801.392C574.443 788.118 583.292 768.805 583.292 748.506V367.413C583.292 334.064 559.719 305.365 526.999 298.892L200.823 234.243C179.717 230.058 157.848 235.843 141.57 249.894Z" fill="#F9B000"/>
<path d="M283.273 176.916L230.074 170.129C223.273 168.993 219.879 164.479 224.409 158.799L334.23 2.57982C337.638 -1.93441 346.696 -0.81333 344.424 8.24502L311.599 124.838L361.405 130.503C367.055 131.624 369.327 133.896 367.055 141.818L338.983 233.403L270.836 219.95L283.288 176.931L283.273 176.916Z" fill="#F9B000"/>
<path d="M407.689 701.236C398.242 701.236 388.616 700.712 378.9 699.621C314.565 692.446 258.047 663.268 223.847 619.546C215.685 609.112 217.524 594.015 227.942 585.854C238.376 577.662 253.488 579.531 261.65 589.949C287.943 623.567 332.637 646.153 384.236 651.893C427.958 656.781 469.827 647.827 493.415 628.589C503.699 620.204 518.811 621.728 527.197 632.012C535.582 642.297 534.058 657.409 523.774 665.794C495.777 688.65 453.714 701.236 407.689 701.236Z" fill="#232318"/>
<path d="M39.2156 496.462C39.0213 465.206 54.866 431.798 74.597 421.842C94.3281 411.872 110.442 429.137 110.621 460.393C110.815 491.633 94.9708 525.057 75.2398 534.997C55.5237 544.982 39.395 527.717 39.2156 496.462Z" fill="#232318"/>
<path d="M476.764 567.434L249.199 521.933C224.102 516.91 206.06 494.892 206.06 469.286V368.942C206.06 335.07 237.046 309.674 270.26 316.311L497.825 361.812C522.922 366.834 540.964 388.853 540.964 414.443V514.788C540.964 548.659 509.978 574.07 476.764 567.434Z" fill="#232318"/>
<path d="M315.093 398.733C315.093 388.628 306.901 380.452 296.797 380.452C286.707 380.452 278.516 388.628 278.516 398.733V450.318C278.516 460.422 286.707 468.614 296.797 468.614C306.901 468.614 315.093 460.422 315.093 450.318V398.733Z" fill="#F9B000"/>
<path d="M475.214 427.694C475.214 417.59 467.023 409.413 456.918 409.413C446.828 409.413 438.637 417.59 438.637 427.694V479.279C438.637 489.384 446.828 497.575 456.918 497.575C467.023 497.575 475.214 489.384 475.214 479.279V427.694Z" fill="#F9B000"/>
</svg>
